<svg width="720" height="520" viewBox="0 0 720 520" fill="none" xmlns="http://www.w3.org/2000/svg">
  <defs>
    <radialGradient id="bgGlow" cx="0" cy="0" r="1" gradientUnits="userSpaceOnUse" gradientTransform="translate(364 250) rotate(90) scale(196 196)">
      <stop stop-color="#90B8FF"/>
      <stop offset="0.45" stop-color="#4C78FF"/>
      <stop offset="1" stop-color="#17308C"/>
    </radialGradient>
    <linearGradient id="shieldFace" x1="305" y1="145" x2="431" y2="355" gradientUnits="userSpaceOnUse">
      <stop stop-color="#F8FBFF"/>
      <stop offset="1" stop-color="#C8D9FF"/>
    </linearGradient>
    <linearGradient id="shieldCore" x1="328" y1="176" x2="394" y2="323" gradientUnits="userSpaceOnUse">
      <stop stop-color="#344A9D"/>
      <stop offset="1" stop-color="#0A143A"/>
    </linearGradient>
    <filter id="softGlow" x="236" y="104" width="256" height="310" filterUnits="userSpaceOnUse" color-interpolation-filters="sRGB">
      <feGaussianBlur stdDeviation="18"/>
    </filter>
  </defs>

  <g opacity="0.38" filter="url(#softGlow)">
    <ellipse cx="364" cy="254" rx="92" ry="118" fill="url(#bgGlow)"/>
  </g>

  <g opacity="0.98">
    <path d="M146 176L284 206L218 312L80 282L146 176Z" stroke="#FFFFFF" stroke-width="4" stroke-linejoin="round"/>
    <path d="M288 202L594 280L452 360L146 282L288 202Z" stroke="#FFFFFF" stroke-width="4" stroke-linejoin="round"/>
    <path d="M594 280L448 226L310 246" stroke="#FFFFFF" stroke-width="4" stroke-linecap="round"/>
    <path d="M458 338L612 284" stroke="#FFFFFF" stroke-width="4" stroke-linecap="round"/>
    <path d="M318 340L258 392L190 252" stroke="#FFFFFF" stroke-width="4" stroke-linejoin="round"/>
  </g>

  <path d="M362 116C394 140 430 150 470 156V246C470 321 427 381 362 414C297 381 254 321 254 246V156C294 150 330 140 362 116Z" fill="url(#shieldFace)" stroke="#DDE8FF" stroke-width="8"/>
  <path d="M362 142C389 161 418 169 449 174V244C449 307 413 357 362 384C311 357 275 307 275 244V174C306 169 335 161 362 142Z" fill="url(#shieldCore)" stroke="#83A7FF" stroke-width="4"/>

  <g opacity="0.92" stroke="#8EB3FF" stroke-width="3">
    <path d="M362 166V362"/>
    <path d="M303 193L421 337"/>
    <path d="M420 193L304 337"/>
    <path d="M288 241H436"/>
    <path d="M303 317L421 214"/>
    <path d="M421 317L303 214"/>
  </g>

  <g fill="#D7E6FF">
    <circle cx="316" cy="194" r="4"/>
    <circle cx="406" cy="191" r="4"/>
    <circle cx="290" cy="241" r="4"/>
    <circle cx="434" cy="241" r="4"/>
    <circle cx="320" cy="332" r="4"/>
    <circle cx="406" cy="334" r="4"/>
  </g>

  <!-- masking plate so the grid lines don't bleed through the padlock -->
  <path d="M328 170H396C398 170 400 172 400 174V288C400 290 398 292 396 292H328C326 292 324 290 324 288V174C324 172 326 170 328 170Z" fill="#17308C"/>
  <!-- closed shackle: full loop, both legs anchored into the body -->
  <path d="M344 240V208C344 190 358 176 376 176C394 176 408 190 408 208V240" fill="none" stroke="#F6FBFF" stroke-width="12" stroke-linecap="round" stroke-linejoin="round"/>
  <path d="M344 240V208C344 190 358 176 376 176C394 176 408 190 408 208V240" fill="none" stroke="#90B5FF" stroke-width="6" stroke-linecap="round" stroke-linejoin="round"/>
  <!-- body of the padlock -->
  <rect x="330" y="236" width="64" height="52" rx="10" fill="#EAF2FF" stroke="#90B5FF" stroke-width="3"/>
  <!-- keyhole -->
  <circle cx="362" cy="256" r="7" fill="#17308C"/>
  <path d="M362 263V276" stroke="#17308C" stroke-width="6" stroke-linecap="round"/>

  <g fill="#9AF0A4">
    <rect x="100" y="86" width="18" height="18"/>
    <rect x="118" y="68" width="18" height="18"/>
    <rect x="136" y="86" width="18" height="18"/>
    <rect x="82" y="104" width="18" height="18"/>

    <rect x="550" y="104" width="18" height="18"/>
    <rect x="568" y="122" width="18" height="18"/>
    <rect x="586" y="140" width="18" height="18"/>
    <rect x="532" y="122" width="18" height="18"/>

    <rect x="584" y="336" width="18" height="18"/>
    <rect x="566" y="354" width="18" height="18"/>
    <rect x="548" y="372" width="18" height="18"/>
    <rect x="602" y="354" width="18" height="18"/>

    <rect x="110" y="354" width="18" height="18"/>
    <rect x="128" y="372" width="18" height="18"/>
    <rect x="146" y="390" width="18" height="18"/>
    <rect x="92" y="390" width="18" height="18"/>
  </g>
</svg>
